<svg width="24" height="24" viewBox="0 0 24 24" fill="none" xmlns="http://www.w3.org/2000/svg">
<g opacity="0.3">
<path d="M15 11H6.05005C5.80005 11 5.55005 11.25 5.55005 11.5C5.55005 11.75 5.80005 12 6.05005 12H15C15.3 12 15.5 11.75 15.5 11.5C15.5 11.25 15.25 11 15 11Z" fill="#1C1C1D"/>
<path d="M20.2 11H19C18.75 11 18.5 11.25 18.5 11.5C18.5 11.75 18.75 12 19 12H20.25C20.5 12 20.75 11.75 20.75 11.5C20.75 11.25 20.5 11 20.2 11Z" fill="#1C1C1D"/>
<path d="M14.25 17.5H6.75V18.5H14.25V17.5Z" fill="#1C1C1D"/>
</g>
<path d="M17.6 9.1L14.5 6V4.5C14.5 3.95 14.05 3.5 13.5 3.5H7.5C6.95 3.5 6.5 3.95 6.5 4.5V5.9L3.25 9.15C2.25 9.5 1.5 10.4 1.5 11.5C1.5 12.1 1.7 12.6 2.05 13C2.1 13.15 2.2 13.3 2.35 13.4L6.35 17.4L6 19.35C5.95 19.65 6.05 19.95 6.2 20.15C6.35 20.35 6.7 20.5 7 20.5H14C14.3 20.5 14.55 20.35 14.75 20.15C14.95 19.95 15 19.65 15 19.35L14.65 17.35L18.55 13.45C18.55 13.45 18.55 13.4 18.6 13.4C19.15 12.95 19.5 12.25 19.5 11.5C19.5 10.35 18.7 9.35 17.6 9.1ZM2.55 11.5C2.55 10.65 3.2 10 4.05 10C4.9 10 5.55 10.65 5.55 11.5C5.55 12.35 4.9 13 4.05 13C3.2 13 2.55 12.35 2.55 11.5ZM6.25 10.4L8.7 7.95C8.8 7.85 8.9 7.7 9 7.55H11.9C11.95 7.7 12.05 7.85 12.2 7.95L14.75 10.5C14.55 10.75 14.5 11.1 14.5 11.5C14.5 12 14.65 12.45 14.9 12.85L12.25 15.5H8.65C8.55 15.4 6.85 13.7 6.1 12.95C6.4 12.55 6.55 12.05 6.55 11.5C6.55 11.1 6.4 10.7 6.25 10.4ZM15.5 11.5C15.5 10.65 16.15 10 17 10C17.85 10 18.5 10.65 18.5 11.5C18.5 12.35 17.85 13 17 13C16.15 13 15.5 12.35 15.5 11.5ZM14.25 7.15L16.25 9.15C15.9 9.25 15.6 9.45 15.35 9.65L13.2 7.5H13.5C13.8 7.5 14.05 7.35 14.25 7.15ZM7.5 4.5H13.5V6.5H7.5V4.5ZM6.7 7.1C6.9 7.35 7.15 7.5 7.5 7.5H7.7L5.6 9.6C5.35 9.4 5 9.2 4.65 9.1L6.7 7.1ZM6.55 16.2L4.3 13.95C4.7 13.9 5.05 13.8 5.35 13.6L7.25 15.5C6.9 15.6 6.65 15.85 6.55 16.2ZM7 19.5L7.5 16.5H13.5L14 19.5H7ZM14.45 16.15C14.3 15.8 14 15.55 13.65 15.5L15.6 13.55C15.9 13.75 16.25 13.9 16.65 13.95L14.45 16.15Z" fill="white"/>
<path d="M22 8.5H21C20.45 8.5 20 8.95 20 9.5V13.5C20 14.05 20.45 14.5 21 14.5H22C22.55 14.5 23 14.05 23 13.5V9.5C23 8.95 22.55 8.5 22 8.5ZM22 13.5H21V9.5H22V13.5Z" fill="white"/>
</svg>
